<?xml version="1.0" encoding="UTF-8" standalone="no"?>
<!DOCTYPE svg PUBLIC "-//W3C//DTD SVG 1.1//EN" "http://www.w3.org/Graphics/SVG/1.1/DTD/svg11.dtd">
<svg width="100%" height="100%" viewBox="0 0 12000 4000" version="1.1" xmlns="http://www.w3.org/2000/svg" xmlns:xlink="http://www.w3.org/1999/xlink" xml:space="preserve" xmlns:serif="http://www.serif.com/" style="fill-rule:evenodd;clip-rule:evenodd;stroke-linecap:round;stroke-linejoin:round;stroke-miterlimit:1.5;">
    <g transform="matrix(1,0,0,1,193.874,242.5)">
        <g transform="matrix(1666.67,0,0,1666.67,3626.3,1660.35)">
            <path d="M0.182,-0L0.182,-0.123L0.236,-0.123C0.3,-0.123 0.347,-0.141 0.379,-0.177C0.411,-0.214 0.427,-0.267 0.427,-0.337C0.427,-0.414 0.411,-0.472 0.379,-0.511C0.347,-0.551 0.3,-0.57 0.236,-0.57L0.184,-0.57L0.172,-0.693L0.236,-0.693C0.453,-0.693 0.562,-0.575 0.562,-0.337C0.562,-0.112 0.453,-0 0.236,-0L0.182,-0ZM0.06,-0L0.06,-0.693L0.189,-0.693L0.189,-0L0.06,-0Z" style="fill:rgb(255,176,0);fill-rule:nonzero;"/>
        </g>
        <g transform="matrix(1666.67,0,0,1666.67,4602.87,1660.35)">
            <path d="M0.261,-0L0.261,-0.488L0.393,-0.488L0.393,-0L0.261,-0ZM0.07,-0L0.07,-0.122L0.271,-0.122L0.271,-0L0.07,-0ZM0.383,-0L0.383,-0.122L0.546,-0.122L0.546,-0L0.383,-0ZM0.099,-0.396L0.099,-0.518L0.393,-0.518L0.393,-0.396L0.099,-0.396ZM0.321,-0.587C0.296,-0.587 0.276,-0.595 0.26,-0.611C0.245,-0.626 0.237,-0.647 0.237,-0.672C0.237,-0.697 0.245,-0.717 0.26,-0.733C0.276,-0.749 0.296,-0.756 0.321,-0.756C0.346,-0.756 0.367,-0.749 0.382,-0.733C0.398,-0.717 0.406,-0.697 0.406,-0.672C0.406,-0.647 0.398,-0.626 0.382,-0.611C0.367,-0.595 0.346,-0.587 0.321,-0.587Z" style="fill:rgb(255,176,0);fill-rule:nonzero;"/>
        </g>
        <g transform="matrix(1666.67,0,0,1666.67,5579.43,1660.35)">
            <path d="M0.253,0.01C0.214,0.01 0.179,0.009 0.148,0.006C0.118,0.004 0.091,0 0.068,-0.005L0.083,-0.131C0.125,-0.126 0.159,-0.122 0.187,-0.12C0.215,-0.117 0.237,-0.116 0.253,-0.116C0.297,-0.116 0.329,-0.119 0.349,-0.125C0.369,-0.131 0.379,-0.14 0.379,-0.154C0.379,-0.162 0.376,-0.168 0.372,-0.172C0.367,-0.177 0.359,-0.181 0.348,-0.184L0.18,-0.233C0.145,-0.243 0.119,-0.258 0.102,-0.279C0.084,-0.3 0.076,-0.327 0.076,-0.362C0.076,-0.418 0.099,-0.459 0.146,-0.487C0.193,-0.514 0.264,-0.527 0.359,-0.527C0.382,-0.527 0.405,-0.527 0.428,-0.525C0.452,-0.523 0.478,-0.521 0.504,-0.518L0.49,-0.395C0.461,-0.398 0.435,-0.399 0.413,-0.4C0.39,-0.401 0.372,-0.402 0.356,-0.402C0.305,-0.402 0.268,-0.399 0.245,-0.393C0.222,-0.388 0.211,-0.378 0.211,-0.365C0.211,-0.357 0.213,-0.351 0.218,-0.346C0.223,-0.342 0.23,-0.338 0.24,-0.335L0.385,-0.295C0.43,-0.283 0.463,-0.266 0.485,-0.243C0.507,-0.22 0.518,-0.19 0.518,-0.153C0.518,-0.098 0.496,-0.057 0.453,-0.031C0.409,-0.004 0.342,0.01 0.253,0.01Z" style="fill:rgb(255,176,0);fill-rule:nonzero;"/>
        </g>
        <g transform="matrix(1666.67,0,0,1666.67,6555.99,1660.35)">
            <path d="M0.151,-0.184L0.151,-0.31L0.21,-0.31C0.249,-0.31 0.281,-0.316 0.305,-0.33C0.33,-0.343 0.35,-0.365 0.364,-0.396C0.379,-0.426 0.389,-0.467 0.396,-0.518L0.532,-0.518C0.518,-0.406 0.486,-0.322 0.437,-0.267C0.388,-0.212 0.32,-0.184 0.234,-0.184L0.151,-0.184ZM0.07,-0L0.07,-0.732L0.202,-0.732L0.202,-0L0.07,-0ZM0.408,-0L0.281,-0.252L0.399,-0.292L0.565,-0L0.408,-0Z" style="fill:rgb(255,176,0);fill-rule:nonzero;"/>
        </g>
        <g transform="matrix(1666.67,0,0,1666.67,7532.55,1660.35)">
            <path d="M0.334,0.01C0.244,0.01 0.175,-0.013 0.126,-0.06C0.078,-0.106 0.053,-0.173 0.053,-0.26C0.053,-0.344 0.074,-0.41 0.115,-0.457C0.157,-0.504 0.215,-0.527 0.291,-0.527C0.365,-0.527 0.422,-0.506 0.462,-0.462C0.503,-0.419 0.523,-0.356 0.523,-0.273C0.523,-0.25 0.522,-0.228 0.52,-0.207L0.14,-0.207L0.14,-0.298L0.393,-0.298C0.393,-0.333 0.384,-0.36 0.366,-0.378C0.349,-0.397 0.324,-0.406 0.292,-0.406C0.257,-0.406 0.231,-0.394 0.212,-0.369C0.193,-0.345 0.183,-0.31 0.183,-0.265C0.183,-0.216 0.197,-0.179 0.225,-0.153C0.254,-0.128 0.294,-0.115 0.346,-0.115C0.369,-0.115 0.392,-0.116 0.415,-0.119C0.438,-0.121 0.461,-0.125 0.485,-0.129L0.498,-0.004C0.464,0.002 0.434,0.006 0.407,0.007C0.379,0.009 0.355,0.01 0.334,0.01Z" style="fill:rgb(255,176,0);fill-rule:nonzero;"/>
        </g>
        <g transform="matrix(1666.67,0,0,1666.67,8509.12,1660.35)">
            <path d="M0.403,0.01C0.314,0.01 0.249,-0.008 0.21,-0.044C0.17,-0.08 0.15,-0.137 0.15,-0.216L0.15,-0.283L0.282,-0.283L0.282,-0.229C0.282,-0.189 0.292,-0.16 0.312,-0.143C0.333,-0.125 0.366,-0.116 0.413,-0.116C0.428,-0.116 0.444,-0.117 0.461,-0.118C0.478,-0.12 0.497,-0.123 0.519,-0.125L0.531,-0.002C0.509,0.002 0.488,0.005 0.468,0.007C0.448,0.009 0.426,0.01 0.403,0.01ZM0.15,-0.252L0.15,-0.674L0.282,-0.674L0.282,-0.252L0.15,-0.252ZM0.026,-0.396L0.026,-0.518L0.511,-0.518L0.511,-0.396L0.026,-0.396Z" style="fill:rgb(255,176,0);fill-rule:nonzero;"/>
        </g>
        <g transform="matrix(1666.67,0,0,1666.67,9485.68,1660.35)">
            <path d="M0.403,0.01C0.314,0.01 0.249,-0.008 0.21,-0.044C0.17,-0.08 0.15,-0.137 0.15,-0.216L0.15,-0.283L0.282,-0.283L0.282,-0.229C0.282,-0.189 0.292,-0.16 0.312,-0.143C0.333,-0.125 0.366,-0.116 0.413,-0.116C0.428,-0.116 0.444,-0.117 0.461,-0.118C0.478,-0.12 0.497,-0.123 0.519,-0.125L0.531,-0.002C0.509,0.002 0.488,0.005 0.468,0.007C0.448,0.009 0.426,0.01 0.403,0.01ZM0.15,-0.252L0.15,-0.674L0.282,-0.674L0.282,-0.252L0.15,-0.252ZM0.026,-0.396L0.026,-0.518L0.511,-0.518L0.511,-0.396L0.026,-0.396Z" style="fill:rgb(255,176,0);fill-rule:nonzero;"/>
        </g>
        <g transform="matrix(1666.67,0,0,1666.67,10462.2,1660.35)">
            <path d="M0.334,0.01C0.244,0.01 0.175,-0.013 0.126,-0.06C0.078,-0.106 0.053,-0.173 0.053,-0.26C0.053,-0.344 0.074,-0.41 0.115,-0.457C0.157,-0.504 0.215,-0.527 0.291,-0.527C0.365,-0.527 0.422,-0.506 0.462,-0.462C0.503,-0.419 0.523,-0.356 0.523,-0.273C0.523,-0.25 0.522,-0.228 0.52,-0.207L0.14,-0.207L0.14,-0.298L0.393,-0.298C0.393,-0.333 0.384,-0.36 0.366,-0.378C0.349,-0.397 0.324,-0.406 0.292,-0.406C0.257,-0.406 0.231,-0.394 0.212,-0.369C0.193,-0.345 0.183,-0.31 0.183,-0.265C0.183,-0.216 0.197,-0.179 0.225,-0.153C0.254,-0.128 0.294,-0.115 0.346,-0.115C0.369,-0.115 0.392,-0.116 0.415,-0.119C0.438,-0.121 0.461,-0.125 0.485,-0.129L0.498,-0.004C0.464,0.002 0.434,0.006 0.407,0.007C0.379,0.009 0.355,0.01 0.334,0.01Z" style="fill:rgb(255,176,0);fill-rule:nonzero;"/>
        </g>
        <g transform="matrix(1666.67,0,0,1666.67,11438.8,1660.35)">
        </g>
    </g>
    <g transform="matrix(1,0,0,1,193.874,1742.5)">
        <g transform="matrix(1666.67,0,0,1666.67,3626.3,1660.35)">
            <path d="M0.135,-0.221L0.144,-0.35C0.19,-0.35 0.23,-0.36 0.263,-0.379C0.297,-0.398 0.325,-0.424 0.347,-0.457C0.369,-0.489 0.385,-0.526 0.396,-0.567C0.406,-0.608 0.412,-0.65 0.412,-0.693L0.542,-0.693C0.542,-0.632 0.533,-0.573 0.515,-0.516C0.497,-0.459 0.47,-0.409 0.435,-0.365C0.4,-0.32 0.358,-0.285 0.307,-0.259C0.257,-0.234 0.199,-0.221 0.135,-0.221ZM0.065,-0L0.065,-0.693L0.194,-0.693L0.194,-0L0.065,-0ZM0.417,-0L0.277,-0.307L0.397,-0.357L0.576,-0L0.417,-0Z" style="fill:rgb(150,26,107);fill-rule:nonzero;"/>
        </g>
        <g transform="matrix(1666.67,0,0,1666.67,4602.87,1660.35)">
            <path d="M0.261,-0L0.261,-0.488L0.393,-0.488L0.393,-0L0.261,-0ZM0.07,-0L0.07,-0.122L0.271,-0.122L0.271,-0L0.07,-0ZM0.383,-0L0.383,-0.122L0.546,-0.122L0.546,-0L0.383,-0ZM0.099,-0.396L0.099,-0.518L0.393,-0.518L0.393,-0.396L0.099,-0.396ZM0.321,-0.587C0.296,-0.587 0.276,-0.595 0.26,-0.611C0.245,-0.626 0.237,-0.647 0.237,-0.672C0.237,-0.697 0.245,-0.717 0.26,-0.733C0.276,-0.749 0.296,-0.756 0.321,-0.756C0.346,-0.756 0.367,-0.749 0.382,-0.733C0.398,-0.717 0.406,-0.697 0.406,-0.672C0.406,-0.647 0.398,-0.626 0.382,-0.611C0.367,-0.595 0.346,-0.587 0.321,-0.587Z" style="fill:rgb(150,26,107);fill-rule:nonzero;"/>
        </g>
        <g transform="matrix(1666.67,0,0,1666.67,5579.43,1660.35)">
            <path d="M0.403,0.01C0.314,0.01 0.249,-0.008 0.21,-0.044C0.17,-0.08 0.15,-0.137 0.15,-0.216L0.15,-0.283L0.282,-0.283L0.282,-0.229C0.282,-0.189 0.292,-0.16 0.312,-0.143C0.333,-0.125 0.366,-0.116 0.413,-0.116C0.428,-0.116 0.444,-0.117 0.461,-0.118C0.478,-0.12 0.497,-0.123 0.519,-0.125L0.531,-0.002C0.509,0.002 0.488,0.005 0.468,0.007C0.448,0.009 0.426,0.01 0.403,0.01ZM0.15,-0.252L0.15,-0.674L0.282,-0.674L0.282,-0.252L0.15,-0.252ZM0.026,-0.396L0.026,-0.518L0.511,-0.518L0.511,-0.396L0.026,-0.396Z" style="fill:rgb(150,26,107);fill-rule:nonzero;"/>
        </g>
        <g transform="matrix(1666.67,0,0,1666.67,6555.99,1660.35)">
            <path d="M0.354,0.01C0.259,0.01 0.187,-0.013 0.135,-0.06C0.084,-0.106 0.058,-0.173 0.058,-0.26C0.058,-0.344 0.082,-0.41 0.128,-0.457C0.175,-0.504 0.242,-0.527 0.329,-0.527C0.383,-0.527 0.429,-0.517 0.467,-0.496C0.505,-0.475 0.532,-0.446 0.548,-0.408L0.452,-0.332C0.438,-0.354 0.42,-0.371 0.398,-0.383C0.376,-0.396 0.351,-0.402 0.325,-0.402C0.284,-0.402 0.252,-0.39 0.228,-0.366C0.205,-0.342 0.193,-0.309 0.193,-0.265C0.193,-0.216 0.208,-0.179 0.238,-0.154C0.268,-0.128 0.31,-0.116 0.365,-0.116C0.389,-0.116 0.412,-0.117 0.435,-0.119C0.459,-0.121 0.481,-0.125 0.503,-0.128L0.517,-0.005C0.491,0.001 0.464,0.005 0.436,0.007C0.407,0.009 0.38,0.01 0.354,0.01Z" style="fill:rgb(150,26,107);fill-rule:nonzero;"/>
        </g>
        <g transform="matrix(1666.67,0,0,1666.67,7532.55,1660.35)">
            <path d="M0.38,-0L0.38,-0.313C0.38,-0.341 0.373,-0.364 0.361,-0.379C0.348,-0.395 0.329,-0.403 0.306,-0.403C0.239,-0.403 0.206,-0.357 0.206,-0.267L0.176,-0.424L0.219,-0.424C0.224,-0.459 0.236,-0.485 0.254,-0.502C0.273,-0.519 0.302,-0.527 0.34,-0.527C0.395,-0.527 0.437,-0.511 0.467,-0.478C0.497,-0.444 0.512,-0.397 0.512,-0.337L0.512,-0L0.38,-0ZM0.074,-0L0.074,-0.732L0.206,-0.732L0.206,-0L0.074,-0Z" style="fill:rgb(150,26,107);fill-rule:nonzero;"/>
        </g>
        <g transform="matrix(1666.67,0,0,1666.67,8509.12,1660.35)">
            <path d="M0.334,0.01C0.244,0.01 0.175,-0.013 0.126,-0.06C0.078,-0.106 0.053,-0.173 0.053,-0.26C0.053,-0.344 0.074,-0.41 0.115,-0.457C0.157,-0.504 0.215,-0.527 0.291,-0.527C0.365,-0.527 0.422,-0.506 0.462,-0.462C0.503,-0.419 0.523,-0.356 0.523,-0.273C0.523,-0.25 0.522,-0.228 0.52,-0.207L0.14,-0.207L0.14,-0.298L0.393,-0.298C0.393,-0.333 0.384,-0.36 0.366,-0.378C0.349,-0.397 0.324,-0.406 0.292,-0.406C0.257,-0.406 0.231,-0.394 0.212,-0.369C0.193,-0.345 0.183,-0.31 0.183,-0.265C0.183,-0.216 0.197,-0.179 0.225,-0.153C0.254,-0.128 0.294,-0.115 0.346,-0.115C0.369,-0.115 0.392,-0.116 0.415,-0.119C0.438,-0.121 0.461,-0.125 0.485,-0.129L0.498,-0.004C0.464,0.002 0.434,0.006 0.407,0.007C0.379,0.009 0.355,0.01 0.334,0.01Z" style="fill:rgb(150,26,107);fill-rule:nonzero;"/>
        </g>
        <g transform="matrix(1666.67,0,0,1666.67,9485.68,1660.35)">
            <path d="M0.38,-0L0.38,-0.304C0.38,-0.335 0.373,-0.36 0.361,-0.376C0.348,-0.393 0.329,-0.402 0.306,-0.402C0.239,-0.402 0.206,-0.354 0.206,-0.258L0.176,-0.424L0.219,-0.424C0.224,-0.459 0.236,-0.485 0.254,-0.502C0.273,-0.519 0.302,-0.527 0.34,-0.527C0.395,-0.527 0.437,-0.511 0.467,-0.478C0.497,-0.444 0.512,-0.397 0.512,-0.337L0.512,-0L0.38,-0ZM0.074,-0L0.074,-0.518L0.192,-0.518L0.206,-0.408L0.206,-0L0.074,-0Z" style="fill:rgb(150,26,107);fill-rule:nonzero;"/>
        </g>
        <g transform="matrix(1666.67,0,0,1666.67,10462.2,1660.35)">
        </g>
    </g>
    <g transform="matrix(1,0,0,1,6988.87,1660)">
        <g transform="matrix(1666.67,0,0,1666.67,3626.3,1742.85)">
            <rect x="0.049" y="-0" width="0.488" height="0.122" style="fill:rgb(0,143,135);fill-rule:nonzero;"/>
        </g>
        <g transform="matrix(1666.67,0,0,1666.67,4602.87,1742.85)">
        </g>
    </g>
    <g id="Diskette" transform="matrix(1.332,0,0,1.33246,-63.7854,-47.7732)">
        <g transform="matrix(0.751618,0,0,0.751618,39.4294,35.5147)">
            <rect x="654.113" y="325.619" width="2221.78" height="1108.29" style="fill:rgb(0,88,58);stroke:black;stroke-width:33.29px;"/>
        </g>
        <path id="Case" d="M2773.11,2683.3C2770.34,2687.39 2775.7,2723.99 2757.36,2741.46C2737.57,2760.3 2694.1,2759.94 2694.1,2759.94L347.249,2759.94C347.249,2759.94 305.854,2763.23 287.441,2742.35C269.035,2721.47 273.619,2676.42 273.619,2676.42L273.619,261.087L513.829,261.154L531.539,280.773L533.92,1045.75C533.92,1045.75 533.964,1073.7 554.301,1092.38C571.099,1107.82 600.233,1108.44 600.233,1108.44L2137.65,1110.2C2137.65,1110.2 2170.88,1107.93 2186.58,1090.48C2202.29,1073.03 2200.45,1040.39 2200.45,1040.39L2201.95,306.795L2254.91,306.297L2288.49,272.299L2499.7,273.36L2513.56,261L2616.29,261.087L2772.47,417.266L2772.47,2684.01L2773.11,2683.3ZM2538.2,2681.85L2694.38,2681.85L2694.58,2563L2538.49,2563.8L2538.2,2681.85Z" style="fill:rgb(0,149,101);stroke:black;stroke-width:25.05px;stroke-linecap:butt;stroke-miterlimit:4;"/>
        <path id="Cover" d="M2201,262.424L2200.45,1007.55C2200.45,1007.55 2194.74,1028.62 2181.77,1040.28C2168.8,1051.93 2148.57,1054.19 2148.57,1054.19L936.315,1048C936.315,1048 915.637,1046.52 906.141,1036.78C896.645,1027.05 898.332,1009.08 898.332,1009.08L898.332,261.087L2201,262.424ZM1991.58,963.89L1991.58,434.553L1757.31,434.553L1757.31,963.89L1991.58,963.89Z" style="fill:rgb(53,58,71);stroke:black;stroke-width:25.05px;stroke-linecap:butt;stroke-miterlimit:4;"/>
        <path id="Label" d="M585.975,2759.94L585.975,1438.92C585.975,1438.92 581.579,1394.5 600.945,1373.35C620.303,1352.2 663.432,1354.34 663.432,1354.34L2376.53,1354.34C2376.53,1354.34 2421.33,1349.67 2442.22,1369.48C2463.12,1389.3 2460.12,1433.6 2460.12,1433.6L2460.12,2759.94L585.975,2759.94Z" style="fill:rgb(230,235,224);fill-rule:nonzero;stroke:black;stroke-width:25.05px;stroke-linecap:butt;stroke-miterlimit:4;"/>
    </g>
</svg>
