<?xml version="1.0" encoding="UTF-8" standalone="no"?>
<!DOCTYPE svg PUBLIC "-//W3C//DTD SVG 1.1//EN" "http://www.w3.org/Graphics/SVG/1.1/DTD/svg11.dtd">
<svg width="100%" height="100%" viewBox="0 0 473 331" version="1.1" xmlns="http://www.w3.org/2000/svg" xmlns:xlink="http://www.w3.org/1999/xlink" xml:space="preserve" xmlns:serif="http://www.serif.com/" style="fill-rule:evenodd;clip-rule:evenodd;stroke-linejoin:round;stroke-miterlimit:2;">
    <g id="Colored-V2" serif:id="Colored V2" transform="matrix(1,0,0,1,0,-70.8661)">
        <g id="K" transform="matrix(0.782272,0,0,0.782272,116.03,-21.5282)">
            <path d="M285.981,510.981C282.466,505.903 279.145,500.141 276.02,493.696C272.895,487.251 270.21,480.561 267.964,473.628C265.718,466.694 263.911,459.614 262.544,452.388C261.177,445.161 260.493,438.227 260.493,431.587L274.556,425.434C276.313,443.208 279.829,459.224 285.102,473.481C290.376,487.739 297.212,499.849 305.61,509.809C314.009,519.77 323.823,527.436 335.054,532.808C346.284,538.179 358.735,540.864 372.407,540.864C386.274,540.864 398.433,538.765 408.882,534.565C419.331,530.366 428.022,524.604 434.956,517.28C441.89,509.956 447.065,501.411 450.483,491.645C453.901,481.88 455.61,471.528 455.61,460.591C455.61,451.02 454.292,441.255 451.655,431.294C449.018,421.333 445.063,411.567 439.79,401.997C432.368,400.825 425.679,399.556 419.722,398.188C413.765,396.821 408.149,395.259 402.876,393.501C397.602,391.743 392.427,389.741 387.349,387.495C382.27,385.249 377.095,382.563 371.821,379.438C382.368,375.727 392.329,370.991 401.704,365.229C411.079,359.468 419.331,352.632 426.46,344.722C433.589,336.811 439.204,327.876 443.306,317.915C447.407,307.954 449.458,296.919 449.458,284.809C449.458,271.919 447.212,260.542 442.72,250.679C438.227,240.815 431.88,232.515 423.677,225.776C415.474,219.038 405.464,213.96 393.647,210.542C381.831,207.124 368.599,205.415 353.95,205.415C351.606,205.415 348.628,205.659 345.015,206.147C341.401,206.636 337.593,207.222 333.589,207.905C329.585,208.589 325.679,209.272 321.87,209.956C318.061,210.64 314.888,211.177 312.349,211.567C309.028,224.653 305.561,236.518 301.948,247.163C298.335,257.808 294.184,267.671 289.497,276.753C284.809,285.835 279.487,294.282 273.53,302.095C267.573,309.907 260.591,317.524 252.583,324.946C247.895,322.602 245.552,319.673 245.552,316.157C245.552,314.204 246.528,311.763 248.481,308.833C250.434,305.903 252.729,302.876 255.366,299.751C258.003,296.626 260.688,293.599 263.423,290.669C266.157,287.739 268.208,285.2 269.575,283.052C273.481,272.309 276.753,260.591 279.39,247.895C282.026,235.2 283.345,221.528 283.345,206.88L283.345,175.825C283.345,165.474 281.05,156.636 276.46,149.311C271.87,141.987 265.815,136.03 258.296,131.44C250.776,126.85 242.183,123.481 232.515,121.333C222.847,119.184 212.934,118.11 202.778,118.11C188.911,118.11 175.386,119.917 162.202,123.53C149.018,127.143 130.264,137.251 128.95,150.194L128.95,478.755C128.95,489.302 131.294,498.433 135.981,506.147C140.669,513.862 146.675,520.308 153.999,525.483C161.323,530.659 169.526,534.516 178.608,537.056C187.69,539.595 196.626,540.864 205.415,540.864C222.993,540.864 238.667,538.13 252.436,532.661C266.206,527.192 277.388,519.966 285.981,510.981Z" style="fill:rgb(150,26,107);fill-rule:nonzero;"/>
        </g>
        <g id="Hole" transform="matrix(0.727273,0,0,0.727273,114.889,138.511)">
            <circle cx="410.433" cy="280.512" r="32.48" style="fill:rgb(255,176,0);"/>
        </g>
        <g id="D" transform="matrix(0.799636,0,0,0.856464,-101.942,-57.39)">
            <path d="M195.454,535.884C174.36,535.884 157.759,530.268 145.649,519.038C133.54,507.808 127.485,490.278 127.485,466.45L127.485,202.778C127.485,194.966 131.733,187.837 140.229,181.391C148.725,174.946 159.809,169.38 173.481,164.692C187.153,160.005 202.583,156.343 219.77,153.706C236.958,151.069 254.341,149.751 271.919,149.751C302.974,149.751 331.343,153.559 357.026,161.177C382.71,168.794 404.829,180.61 423.384,196.626C441.938,212.641 456.343,233.052 466.597,257.856C476.85,282.661 481.977,312.349 481.977,346.919C481.977,377.192 477.046,404.048 467.183,427.485C457.319,450.923 443.159,470.698 424.702,486.811C406.245,502.925 383.931,515.132 357.759,523.433C331.587,531.733 302.192,535.884 269.575,535.884L195.454,535.884ZM326.887,327.717C326.887,316.609 326.459,307.063 325.603,299.079C324.746,291.095 323.248,284.442 321.107,279.119C318.967,274.259 316.077,271.02 312.438,269.4C308.799,267.78 304.624,266.97 299.915,266.97C295.205,266.97 291.566,267.375 288.998,268.185C286.429,268.995 284.288,269.747 282.576,270.441C283.004,274.607 283.646,278.483 284.502,282.07C285.358,285.657 286.108,289.707 286.75,294.219C287.392,298.732 287.927,303.939 288.355,309.84C288.783,315.741 288.998,322.973 288.998,331.536L288.998,354.099C288.998,362.661 288.783,369.893 288.355,375.794C287.927,381.696 287.392,386.903 286.75,391.415C286.108,395.928 285.358,399.978 284.502,403.565C283.646,407.152 283.004,411.028 282.576,415.194C284.288,415.888 286.429,416.64 288.998,417.45C291.566,418.26 295.205,418.665 299.915,418.665C304.624,418.665 308.799,417.855 312.438,416.235C316.077,414.615 318.967,411.375 321.107,406.515C323.248,401.193 324.746,394.539 325.603,386.555C326.459,378.571 326.887,369.025 326.887,357.917L326.887,327.717Z" style="fill:rgb(0,147,97);fill-rule:nonzero;"/>
        </g>
    </g>
</svg>
